<svg viewBox="0 0 36 36" width="36" height="36" fill="none" xmlns="http://www.w3.org/2000/svg">
  <rect width="36" height="36" rx="8" fill="#0a0a0a"/>
  <path fill-rule="evenodd" fill="white" d="M18 8C14.5 8 2.5 11.5 2.5 18.5C2.5 23.5 7 27.5 13 27.5C15.8 27.5 17.3 25 18 23.8C18.7 25 20.2 27.5 23 27.5C29 27.5 33.5 23.5 33.5 18.5C33.5 11.5 21.5 8 18 8ZM7.5 18.5C7.5 16.2 9.5 14.5 12 14.5C14.5 14.5 16.5 16.2 16.5 18.5C16.5 20.8 14.5 22.5 12 22.5C9.5 22.5 7.5 20.8 7.5 18.5ZM19.5 18.5C19.5 16.2 21.5 14.5 24 14.5C26.5 14.5 28.5 16.2 28.5 18.5C28.5 20.8 26.5 22.5 24 22.5C21.5 22.5 19.5 20.8 19.5 18.5Z"/>
</svg>
